<?xml version="1.0" encoding="UTF-8" standalone="no"?>
<svg
   version="1.1"
   viewBox="0 0 156 208"
   id="svg851"
   sodipodi:docname="dobutsuboard.svg"
   inkscape:version="1.2.2 (732a01da63, 2022-12-09)"
   inkscape:export-filename="D:\Pictures\Chess Variants\Shogi\Boards\Shogiban1.png"
   inkscape:export-xdpi="96.300003"
   inkscape:export-ydpi="96.300003"
   width="156"
   height="208"
   xmlns:inkscape="http://www.inkscape.org/namespaces/inkscape"
   xmlns:sodipodi="http://sodipodi.sourceforge.net/DTD/sodipodi-0.dtd"
   xmlns:xlink="http://www.w3.org/1999/xlink"
   xmlns="http://www.w3.org/2000/svg"
   xmlns:svg="http://www.w3.org/2000/svg"
   xmlns:rdf="http://www.w3.org/1999/02/22-rdf-syntax-ns#"
   xmlns:cc="http://creativecommons.org/ns#"
   xmlns:dc="http://purl.org/dc/elements/1.1/">
  <metadata
     id="metadata855">
    <rdf:RDF>
      <cc:Work
         rdf:about="">
        <dc:format>image/svg+xml</dc:format>
        <dc:type
           rdf:resource="http://purl.org/dc/dcmitype/StillImage" />
      </cc:Work>
    </rdf:RDF>
  </metadata>
  <sodipodi:namedview
     pagecolor="#ffffff"
     bordercolor="#666666"
     borderopacity="1"
     objecttolerance="10"
     gridtolerance="10"
     guidetolerance="10"
     inkscape:pageopacity="0"
     inkscape:pageshadow="2"
     inkscape:window-width="1920"
     inkscape:window-height="1001"
     id="namedview853"
     showgrid="false"
     inkscape:zoom="2.8284271"
     inkscape:cx="162.45778"
     inkscape:cy="99.525279"
     inkscape:window-x="-9"
     inkscape:window-y="-9"
     inkscape:window-maximized="1"
     inkscape:current-layer="svg851"
     inkscape:snap-global="false"
     inkscape:snap-bbox="true"
     inkscape:bbox-nodes="true"
     inkscape:bbox-paths="true"
     inkscape:snap-bbox-edge-midpoints="true"
     inkscape:snap-bbox-midpoints="true"
     inkscape:document-rotation="0"
     inkscape:showpageshadow="2"
     inkscape:pagecheckerboard="0"
     inkscape:deskcolor="#d1d1d1" />
  <defs
     id="defs839">
    <pattern
       inkscape:collect="always"
       xlink:href="#pattern2153"
       id="pattern2159" />
    <pattern
       inkscape:collect="always"
       xlink:href="#grid"
       id="pattern2153" />
    <pattern
       id="grid"
       width="52"
       height="60"
       patternUnits="userSpaceOnUse">
      <rect
         width="52"
         height="60"
         style="fill:#FFFFFF;fill-opacity:0.0;stroke-width:2;stroke:black"
         id="rect836" />
    </pattern>
    <clipPath
       clipPathUnits="userSpaceOnUse"
       id="clipPath2155">
      <rect
         id="rect2157"
         height="540"
         width="468"
         style="fill:url(#pattern2159)"
         x="0"
         y="0" />
    </clipPath>
  </defs>
  <rect
     style="fill:#92caed;fill-opacity:1;stroke:none;stroke-width:0.338219;stroke-linecap:square;stroke-linejoin:miter;stroke-miterlimit:4;stroke-dasharray:none;stroke-opacity:1;paint-order:fill markers stroke"
     id="rect1138"
     width="155.7599"
     height="92.393333"
     x="0.22524568"
     y="-1.6555788e-08" />
  <path
     style="fill:#fbf2b7;fill-opacity:1;fill-rule:evenodd;stroke:none;stroke-width:0.726023px;stroke-linecap:butt;stroke-linejoin:miter;stroke-opacity:1"
     d="M 4.9999997e-7,57.760828 C 12.802076,55.622837 29.299807,60.251259 34.922427,61.729722 c 5.348734,0.639632 14.817402,-0.205844 15.93606,-0.537173 16.29821,-6.334358 24.059878,-4.955652 35.341094,-1.817091 8.766197,3.651594 15.435079,3.90002 28.692709,0.07248 11.33384,-3.272107 21.69101,-9.102844 40.92643,0.08227 V 161.11086 H 0.0588355 Z"
     id="path1136"
     inkscape:connector-curvature="0"
     sodipodi:nodetypes="ccccscccc" />
  <path
     style="fill:#cfde7f;fill-opacity:1;fill-rule:evenodd;stroke:none;stroke-width:0.233394px;stroke-linecap:butt;stroke-linejoin:miter;stroke-opacity:1"
     d="m 0.2324725,138.72227 c 18.6041065,-1.48614 26.9558485,9.34441 29.2708865,13.21007 16.969366,-25.5372 44.78071,-7.67786 49.097534,-0.60667 12.660293,-15.80315 40.128157,-15.15425 49.768537,0.48082 C 135.75428,140.18656 151.31892,133.56916 156,134.21588 L 155.9851,207.885 H 0.2252465 Z"
     id="path1134"
     inkscape:connector-curvature="0"
     sodipodi:nodetypes="cccccccc" />
  <path
     style="fill:#ffffff;stroke-width:0.363481"
     d="m 21.96397,172.35573 c -0.590742,-0.44158 -0.920848,-1.20816 -1.021038,-1.32443 -2.359622,0.58437 -4.656906,-0.93423 -2.412548,-2.59766 0.569585,-0.31633 0.823344,-0.7783 0.802116,-1.46019 -0.04673,-1.5004 0.410699,-1.86802 1.927747,-1.5493 0.918775,0.19304 1.619302,0.11729 2.33269,-0.25223 1.377058,-0.71327 2.680067,-0.45691 2.785524,0.54804 0.04565,0.43502 -0.152745,1.01785 -0.44088,1.29517 -0.431025,0.41473 -0.42093,0.56091 0.05658,0.82401 2.387723,1.31561 2.470423,1.94971 0.503082,2.71733 -1.155117,-0.1047 -2.092934,0.92426 -2.25444,1.63803 -1.447925,1.06831 -1.453347,0.77452 -2.278817,0.16123 z"
     id="path2444-3"
     inkscape:connector-curvature="0"
     sodipodi:nodetypes="cccccsccsccc" />
  <path
     style="fill:#ffffff;stroke-width:0.363481"
     d="m 137.55641,172.99168 c -0.59074,-0.44156 -0.92085,-1.20817 -1.02104,-1.32442 -2.35963,0.58436 -4.65691,-0.93425 -2.41254,-2.59767 0.56958,-0.31634 0.82335,-0.77832 0.80211,-1.46018 -0.0469,-1.5004 0.41071,-1.86801 1.92775,-1.54931 0.91878,0.19304 1.61932,0.11729 2.33268,-0.25223 1.37707,-0.71327 2.68008,-0.45691 2.78555,0.54805 0.0457,0.43501 -0.15276,1.01785 -0.44089,1.29515 -0.43103,0.41472 -0.42094,0.56093 0.0565,0.82403 2.38772,1.3156 2.47043,1.94971 0.50309,2.71731 -1.15512,-0.10469 -2.09293,0.92428 -2.25445,1.63804 -1.44792,1.06831 -1.45334,0.77453 -2.27881,0.16123 z"
     id="path2444-3-6"
     inkscape:connector-curvature="0"
     sodipodi:nodetypes="cccccsccsccc" />
  <path
     style="fill:#ffffff;stroke-width:0.363481"
     d="m 80.834445,189.22779 c -0.590749,-0.44158 -0.920845,-1.20818 -1.021043,-1.32443 -2.359621,0.58437 -4.656906,-0.93425 -2.412543,-2.59767 0.569585,-0.31634 0.823346,-0.77831 0.802117,-1.46018 -0.04669,-1.50041 0.410696,-1.86802 1.927747,-1.5493 0.918773,0.19302 1.619299,0.11728 2.332683,-0.25224 1.377059,-0.71325 2.68007,-0.45691 2.785526,0.54804 0.04565,0.43503 -0.152745,1.01786 -0.44088,1.29517 -0.431024,0.41473 -0.420926,0.56092 0.05658,0.82401 2.387723,1.31561 2.470432,1.94972 0.503083,2.71733 -1.155111,-0.1047 -2.09293,0.92426 -2.254438,1.63803 -1.447929,1.06831 -1.45335,0.77453 -2.278822,0.16124 z"
     id="path2444-3-6-3"
     inkscape:connector-curvature="0"
     sodipodi:nodetypes="cccccsccsccc" />
  <path
     style="fill:#ffffff;stroke-width:0.393384"
     d="M 2.5266147,32.361924 C -1.101687,31.703567 -2.2695317,30.622801 -2.4698767,27.737995 l -0.100763,-1.450832 -3.5585553,-0.26922 c -2.330498,-0.176318 -3.871229,-0.506208 -4.464611,-0.955926 -1.208459,-0.915895 -2.11888,-3.019584 -1.813461,-4.19032 0.349667,-1.34036 1.980652,-3.233789 3.366257,-3.907932 0.656641,-0.319481 1.251412,-0.827442 1.321716,-1.128825 0.07031,-0.301381 0.316685,-1.462828 0.547519,-2.58101 0.780428,-3.7804885 2.815478,-5.832653 5.8072247,-5.8560401 2.7784283,-0.021689 7.0405977,2.3209364 7.0405977,3.8698001 0,0.621174 0.7296293,0.517196 0.7422587,-0.105755 0.016183,-0.798043 1.8498286,-2.9673327 3.4058127,-4.02925 1.1208772,-0.7649631 1.9090772,-0.935939 4.1940762,-0.9098018 3.566477,0.040815 4.720805,0.5438376 6.964828,3.0351678 0.995588,1.105304 1.926566,2.00965 2.068842,2.00965 0.142278,0 0.568512,-0.4556 0.947186,-1.012438 0.833636,-1.2258613 3.340438,-2.7963683 4.457369,-2.7925329 1.025794,0.00329 2.348063,1.0233486 4.050171,3.1237509 1.532394,1.890983 1.712486,3.394716 0.602122,5.0275 -1.010917,1.486562 -0.932852,1.816507 0.640094,2.705526 1.237757,0.699574 1.403718,0.994059 1.700378,3.017113 0.31961,2.179573 0.295395,2.281686 -0.871519,3.674286 -1.38875,1.657346 -3.117665,2.152094 -5.425015,1.552429 -1.463846,-0.380442 -1.577478,-0.340666 -2.0519,0.718255 -0.974854,2.175896 -2.176605,3.249931 -4.293359,3.837101 -3.312822,0.918934 -8.035683,-0.0068 -9.878431,-1.935309 -0.588687,-0.616245 -0.731473,-0.552971 -1.851173,0.82029 -1.6900837,2.072824 -5.0371665,2.995883 -8.5511733,2.358263 z"
     id="path2596"
     inkscape:connector-curvature="0" />
  <path
     style="fill:#ffffff;stroke-width:0.431119"
     d="m 75.145048,51.352452 c -3.886372,-0.738213 -5.13728,-1.950068 -5.351882,-5.184796 l -0.107923,-1.626798 -3.811669,-0.301886 c -2.496262,-0.197692 -4.146583,-0.567593 -4.782168,-1.071862 -1.294415,-1.026985 -2.269585,-3.385839 -1.942447,-4.698579 0.374539,-1.502935 2.121532,-3.626028 3.605688,-4.381941 0.703348,-0.358231 1.340426,-0.927819 1.415729,-1.265743 0.07531,-0.337938 0.339211,-1.640271 0.586456,-2.894071 0.835938,-4.23905 3.015742,-6.540117 6.220279,-6.56634 2.976046,-0.02444 7.541369,2.60245 7.541369,4.339181 0,0.696507 0.781532,0.57993 0.795051,-0.118583 0.01734,-0.894828 1.981399,-3.327239 3.64806,-4.51796 1.200598,-0.857748 2.044867,-1.049461 4.492387,-1.020155 3.820154,0.04575 5.056578,0.609802 7.460214,3.403315 1.066417,1.239371 2.063597,2.253409 2.215987,2.253409 0.1524,0 0.60895,-0.510862 1.01457,-1.135241 0.89293,-1.374551 3.578031,-3.135549 4.774401,-3.13125 1.09876,0.0038 2.51508,1.147462 4.33825,3.502644 1.64139,2.120346 1.83429,3.806459 0.64495,5.637304 -1.08282,1.66686 -0.99922,2.036837 0.68561,3.033688 1.3258,0.78443 1.50356,1.114633 1.82134,3.383071 0.34234,2.443942 0.3164,2.558439 -0.93352,4.119954 -1.48752,1.858371 -3.33942,2.413131 -5.81088,1.740728 -1.56796,-0.426586 -1.68968,-0.381985 -2.19785,0.805376 -1.04418,2.43982 -2.331421,3.644116 -4.598711,4.302517 -3.548461,1.030408 -8.607252,-0.0075 -10.581068,-2.170049 -0.630555,-0.690979 -0.783501,-0.620041 -1.982838,0.919785 -1.810294,2.324244 -5.395443,3.359266 -9.15939,2.644306 z"
     id="path2596-9"
     inkscape:connector-curvature="0" />
  <path
     style="fill:#ffffff;stroke-width:0.42197"
     d="m 141.31142,36.470091 c -3.89197,-0.7062 -5.14468,-1.865504 -5.35959,-4.959955 l -0.10812,-1.556251 -3.81715,-0.288782 c -2.49984,-0.189132 -4.15254,-0.542993 -4.78904,-1.025392 -1.29627,-0.982439 -2.27287,-3.239011 -1.94525,-4.494823 0.37508,-1.43776 2.12458,-3.468771 3.61087,-4.191914 0.70436,-0.342696 1.34236,-0.887572 1.41778,-1.210855 0.0754,-0.323282 0.3397,-1.569129 0.5873,-2.768568 0.83713,-4.055209 3.02008,-6.2565004 6.22923,-6.2815869 2.98033,-0.023266 7.55222,2.4895939 7.55222,4.1510099 0,0.666316 0.78264,0.554781 0.7962,-0.113441 0.0174,-0.856035 1.98426,-3.182961 3.6533,-4.3220352 1.20234,-0.8205499 2.04782,-1.0039624 4.49886,-0.9759257 3.82564,0.043769 5.06386,0.5833565 7.47096,3.2557269 1.06792,1.185636 2.06655,2.155688 2.21917,2.155688 0.15262,0 0.60982,-0.488708 1.01602,-1.086012 0.89421,-1.314941 3.58319,-2.999573 4.78127,-2.9954482 1.10034,0.00364 2.5187,1.0977032 4.34449,3.3507382 1.64376,2.028407 1.83694,3.641402 0.64589,5.39284 -1.08439,1.594586 -1.00065,1.948507 0.68661,2.90213 1.32769,0.750413 1.50572,1.066296 1.82392,3.236361 0.34285,2.337971 0.31688,2.447492 -0.93483,3.941289 -1.48967,1.777783 -3.34422,2.308486 -5.81926,1.665242 -1.57022,-0.408087 -1.69208,-0.365422 -2.20099,0.770451 -1.0457,2.334015 -2.33478,3.486099 -4.60535,4.115935 -3.55356,0.985712 -8.61963,-0.0072 -10.59629,-2.075944 -0.63146,-0.661014 -0.78463,-0.593141 -1.9857,0.87991 -1.81288,2.223439 -5.40321,3.213578 -9.17256,2.529634 z"
     id="path2596-1"
     inkscape:connector-curvature="0" />
  <path
     d="M 0.74399906,0.64452382 V 206.13213 M 52.247815,0.64452382 V 206.13213 M 103.75163,0.64452382 V 206.74067 M 155.25544,0.64452382 c 0,68.80013418 0,31.87624918 0,205.85904618 M 0.74399906,0.64452382 H 155.41977 M 0.74399907,52.28052 H 155.62491 M 0.74399907,103.91651 H 155.41977 M 0.74399907,155.55251 H 155.41977 m -153.1900839,51.636 152.8480639,0.0538"
     style="fill:none;fill-opacity:1;stroke:#bd6055;stroke-width:1.38486;stroke-miterlimit:4;stroke-dasharray:5.5395, 5.5395;stroke-dashoffset:0;stroke-opacity:1"
     id="path22173"
     sodipodi:nodetypes="cccccccccccccccccc" />
</svg>
